PathFileType	3	(X/Y/Z)	running_1__view2_aligned.trc
DataRate	CameraRate	NumFrames	NumMarkers	Units	OrigDataRate	OrigDataStartFrame	OrigNumFrames
100.0	100.0	6	19	mm	100.0	199	6426
Frame#	Time	pelvis			neck			head			hip_left			hip_right			knee_left			knee_right			ankle_left			ankle_right			heel_left			heel_right			toe_left			toe_right			shoulder_left			shoulder_right			elbow_left			elbow_right			wrist_left			wrist_right			
		X1	Y1	Z1	X2	Y2	Z2	X3	Y3	Z3	X4	Y4	Z4	X5	Y5	Z5	X6	Y6	Z6	X7	Y7	Z7	X8	Y8	Z8	X9	Y9	Z9	X10	Y10	Z10	X11	Y11	Z11	X12	Y12	Z12	X13	Y13	Z13	X14	Y14	Z14	X15	Y15	Z15	X16	Y16	Z16	X17	Y17	Z17	X18	Y18	Z18	X19	Y19	Z19	
199	1.98000	13.040727	950.045435	116.314533	1.132181	1509.654413	203.853356	-7.407194	1601.854621	352.688627	84.852086	951.703687	115.585002	-58.770637	948.387124	117.044048	119.964964	564.415348	306.009452	-132.361649	519.018050	70.422490	122.433764	105.953935	351.003357	-160.831284	283.034123	-295.690305	117.777708	40.979351	328.592384	-154.692441	284.866692	-356.329789	118.064311	112.502466	578.796599	-199.985143	88.193523	-250.759876	152.733176	1463.960402	117.896513	-158.014077	1468.238474	152.213639	265.708973	1245.599619	-40.083893	-360.953624	1250.742846	142.299465	453.376686	1174.149951	132.235884	-489.992677	1393.359403	345.251572
200	1.99000	11.972620	948.451066	116.451335	-1.180003	1507.716118	203.551485	-10.178617	1599.989433	351.973155	83.850749	950.117775	115.635304	-59.905466	946.784298	117.267355	119.296795	561.643358	300.933123	-131.218318	519.336017	81.177952	121.173637	109.948679	332.572383	-159.818023	279.020758	-275.859855	116.386544	46.907556	308.905182	-154.126564	279.370709	-335.650714	117.728372	110.134106	555.191795	-197.078064	88.766218	-226.876524	151.730053	1462.706817	120.587018	-160.753984	1465.261795	152.410254	264.429274	1242.252959	-29.386764	-357.333854	1245.333099	144.110593	439.261309	1172.777758	145.611421	-477.128490	1384.365416	346.564165
201	2.00000	10.904513	946.856696	116.588137	-3.492187	1505.777822	203.249614	-12.950041	1598.124244	351.257683	82.849412	948.531864	115.685606	-61.040295	945.181472	117.490663	118.628626	558.871368	295.856794	-130.074988	519.653985	91.933414	119.913510	113.943422	314.141409	-158.804763	275.007392	-256.029404	114.995380	52.835761	289.217979	-153.560688	273.874727	-314.971638	117.392432	107.765746	531.586991	-194.170984	89.338913	-202.993171	150.726929	1461.453233	123.277522	-163.493891	1462.285116	152.606870	263.149575	1238.906299	-18.689634	-353.714084	1239.923352	145.921720	425.145933	1171.405565	158.986957	-464.264303	1375.371429	347.876758
202	2.01000	9.836407	945.262327	116.724939	-5.804371	1503.839526	202.947742	-15.721464	1596.259056	350.542210	81.848076	946.945953	115.735908	-62.175124	943.578646	117.713971	117.960457	556.099378	290.780465	-128.931658	519.971952	102.688876	118.653383	117.938166	295.710435	-157.791503	270.994026	-236.198954	113.604217	58.763967	269.530777	-152.994811	268.378745	-294.292563	117.056493	105.397386	507.982187	-191.263905	89.911607	-179.109818	149.723806	1460.199648	125.968026	-166.233799	1459.308436	152.803485	261.869876	1235.559639	-7.992505	-350.094315	1234.513605	147.732847	411.030557	1170.033371	172.362494	-451.400116	1366.377441	349.189351
203	2.02000	8.768300	943.667958	116.861742	-8.116555	1501.901231	202.645871	-18.492887	1594.393868	349.826738	80.846739	945.360042	115.786209	-63.309953	941.975821	117.937278	117.292288	553.327387	285.704136	-127.788328	520.289919	113.444338	117.393256	121.932909	277.279461	-156.778243	266.980660	-216.368504	112.213053	64.692172	249.843574	-152.428934	262.882763	-273.613487	116.720554	103.029027	484.377384	-188.356825	90.484302	-155.226466	148.720682	1458.946064	128.658531	-168.973706	1456.331757	153.000101	260.590177	1232.212980	2.704624	-346.474545	1229.103858	149.543975	396.915180	1168.661178	185.738030	-438.535929	1357.383454	350.501944
204	2.03000	7.700193	942.073589	116.998544	-10.428739	1499.962935	202.344000	-21.264310	1592.528680	349.111266	79.845402	943.774131	115.836511	-64.444782	940.372995	118.160586	116.624119	550.555397	280.627807	-126.644998	520.607887	124.199800	116.133129	125.927653	258.848487	-155.764983	262.967294	-196.538054	110.821889	70.620377	230.156371	-151.863057	257.386781	-252.934412	116.384615	100.660667	460.772580	-185.449746	91.056997	-131.343113	147.717559	1457.692479	131.349035	-171.713613	1453.355078	153.196717	259.310477	1228.866320	13.401753	-342.854775	1223.694111	151.355102	382.799804	1167.288985	199.113567	-425.671742	1348.389467	351.814537
